<svg xmlns="http://www.w3.org/2000/svg" width="9.059" height="15.533" viewBox="0 0 9.059 15.533"><defs><style>.a{fill:#042742;}</style></defs><path class="a" d="M7.755,6.294c.365-.368.7-.709,1.04-1.048l5.03-5.03a.506.506,0,0,1,.825,0c.223.221.444.444.666.666a.509.509,0,0,1,0,.834l-6.3,6.3q-.427.427-.855.854a.5.5,0,0,1-.789,0L.209,1.7A.506.506,0,0,1,.217.877C.439.656.66.433.883.212a.506.506,0,0,1,.825,0q2.97,2.969,5.938,5.939A1.528,1.528,0,0,1,7.755,6.294Z" transform="translate(0 15.533) rotate(-90)"/></svg>