<svg width="28" height="17" viewBox="0 0 28 17" fill="none" xmlns="http://www.w3.org/2000/svg">
<path d="M25.635 2.707C25.6491 4.22287 25.3628 5.72651 24.7925 7.13108C24.2222 8.53565 23.3792 9.81329 22.3123 10.8902C21.2454 11.9671 19.9757 12.822 18.5765 13.4054C17.1773 13.9888 15.6764 14.2891 14.1605 14.2891C12.6446 14.2891 11.1436 13.9888 9.74446 13.4054C8.34528 12.822 7.07556 11.9671 6.00865 10.8902C4.94174 9.81329 4.09879 8.53565 3.52848 7.13108C2.95818 5.72651 2.67183 4.22287 2.68599 2.707" stroke="#032742" stroke-linecap="round" stroke-linejoin="round"/>
<path d="M25.625 2.69501C22.1858 4.81211 18.2052 5.88328 14.168 5.77801C10.1257 5.88362 6.13984 4.81254 2.69498 2.69501" stroke="#032742" stroke-linecap="round" stroke-linejoin="round"/>
<path d="M3.83698 7.722L14.162 5.778" stroke="#032742" stroke-linecap="round" stroke-linejoin="round"/>
</svg>
