<svg xmlns="http://www.w3.org/2000/svg" width="439" height="30.496" viewBox="0 0 439 30.496"><defs><style>.a{opacity:0.5;}.b{fill:#fbefd2;}.b,.c{fill-rule:evenodd;}.c{fill:#fff;}.d{fill:#8098ab;}.e{fill:none;}.f{fill:#ff5f00;}.g{fill:#eb001b;}.h{fill:#f79e1b;}</style></defs><g transform="translate(-904 -4940)"><g transform="translate(904 4946.232)"><g class="a" transform="translate(0 0)"><g transform="translate(0 0)"><path class="b" d="M48.371.705H43.191a.721.721,0,0,0-.712.608L40.385,14.6a.432.432,0,0,0,.426.5H43.47a.5.5,0,0,0,.5-.425l.594-3.767a.72.72,0,0,1,.711-.608h1.639c3.413,0,5.382-1.651,5.9-4.924a3.99,3.99,0,0,0-.661-3.343A4.806,4.806,0,0,0,48.372.7m.6,4.853c-.283,1.86-1.7,1.86-3.077,1.86h-.782l.548-3.472a.431.431,0,0,1,.426-.364h.359c.935,0,1.818,0,2.274.532a1.732,1.732,0,0,1,.251,1.444" transform="translate(-3.428 -0.704)"/><path class="b" d="M24.452,5.5H21.972a.432.432,0,0,0-.427.365l-.108.693L21.262,6.3a3.532,3.532,0,0,0-2.93-1.041,5.7,5.7,0,0,0-5.537,4.99,4.684,4.684,0,0,0,.924,3.812,3.882,3.882,0,0,0,3.124,1.261,4.75,4.75,0,0,0,3.435-1.419l-.111.689a.432.432,0,0,0,.427.5h2.234a.72.72,0,0,0,.711-.608L24.879,6a.432.432,0,0,0-.428-.5M21,10.327a2.767,2.767,0,0,1-2.8,2.369,2.094,2.094,0,0,1-1.666-.67,2.106,2.106,0,0,1-.389-1.742A2.776,2.776,0,0,1,18.92,7.9a2.091,2.091,0,0,1,1.654.676A2.136,2.136,0,0,1,21,10.327M8.967.705H3.786a.721.721,0,0,0-.711.608L.981,14.6a.431.431,0,0,0,.426.5H3.881a.72.72,0,0,0,.711-.608L5.158,10.9a.719.719,0,0,1,.711-.608H7.507c3.413,0,5.382-1.651,5.9-4.925a3.99,3.99,0,0,0-.661-3.343A4.806,4.806,0,0,0,8.968.7m.6,4.853c-.283,1.86-1.7,1.86-3.077,1.86H5.706l.548-3.472a.431.431,0,0,1,.426-.364h.359c.935,0,1.818,0,2.274.532a1.729,1.729,0,0,1,.252,1.444" transform="translate(-0.975 -0.704)"/><path class="b" d="M64.636,5.8H62.155a.432.432,0,0,0-.427.365l-.108.693-.174-.251a3.532,3.532,0,0,0-2.93-1.041,5.706,5.706,0,0,0-5.537,4.99,4.684,4.684,0,0,0,.924,3.812,3.882,3.882,0,0,0,3.124,1.261,4.751,4.751,0,0,0,3.435-1.419l-.111.689a.43.43,0,0,0,.425.5H63.01a.721.721,0,0,0,.712-.608L65.063,6.3a.432.432,0,0,0-.428-.5m-3.457,4.829A2.767,2.767,0,0,1,58.379,13a2.094,2.094,0,0,1-1.666-.67,2.106,2.106,0,0,1-.389-1.742A2.775,2.775,0,0,1,59.1,8.2a2.091,2.091,0,0,1,1.654.676,2.136,2.136,0,0,1,.421,1.754" transform="translate(-4.207 -0.507)"/><path class="b" d="M39.333,5.816H36.839a.717.717,0,0,0-.594.316L32.8,11.2,31.346,6.33a.721.721,0,0,0-.69-.514H28.206a.432.432,0,0,0-.409.572l2.745,8.06L27.96,18.09a.432.432,0,0,0,.353.681H30.8a.721.721,0,0,0,.591-.309L39.687,6.494a.432.432,0,0,0-.354-.678" transform="translate(-2.643 -0.18)"/><path class="b" d="M68.391,1.071,66.264,14.6a.432.432,0,0,0,.427.5h2.138a.721.721,0,0,0,.711-.608L71.637,1.2a.431.431,0,0,0-.427-.5H68.818a.431.431,0,0,0-.427.365" transform="translate(-5.038 -0.704)"/></g></g></g><g class="a" transform="translate(1069.919 4947.011)"><g transform="translate(0 0)"><path class="c" d="M39.309,1.3A11.285,11.285,0,0,0,35.385.62C31.057.62,28,2.8,27.979,5.93c-.026,2.3,2.175,3.592,3.835,4.363,1.709.788,2.28,1.286,2.273,2-.01,1.076-1.363,1.566-2.621,1.566a9.3,9.3,0,0,1-4.126-.845l-.541-.254-.609,3.6a14.589,14.589,0,0,0,4.9.845c4.6,0,7.61-2.164,7.644-5.5.033-1.833-1.151-3.223-3.653-4.37-1.522-.744-2.47-1.241-2.47-1.995,0-.667.812-1.38,2.5-1.38a8.006,8.006,0,0,1,3.28.615l.406.183.609-3.483ZM50.544.914H47.162a2.184,2.184,0,0,0-2.3,1.332L38.355,16.979h4.6l.923-2.415,5.615.007c.135.561.541,2.408.541,2.408h4.055L50.544.914ZM21.756.778h4.383L23.4,16.85H19.016L21.756.775ZM10.618,9.64l.457,2.232L15.364.914H20L13.1,16.955H8.471L4.683,3.37a.9.9,0,0,0-.406-.535,18.457,18.457,0,0,0-4.3-1.6L.033.9H7.095A1.833,1.833,0,0,1,9.083,2.26l1.535,7.383ZM45.14,11.277l1.745-4.5c-.024.047.361-.927.581-1.532l.3,1.386,1.015,4.641H45.14Z" transform="translate(0.025 -0.62)"/></g></g><g transform="translate(989.686 4945.453)"><path class="d" d="M-222.074,256.393l-3.046,7.081h1.983l.562-1.418h3.267l.559,1.418h2.027l-3.043-7.081Zm1.127,1.648,1,2.478h-1.994Zm4.434,5.432v-7.081l2.818.01,1.639,4.565,1.6-4.576h2.8v7.081h-1.77v-5.218l-1.877,5.218h-1.553l-1.882-5.218v5.218Zm10.062,0v-7.081h5.777v1.584h-3.988v1.211h3.895v1.491h-3.895v1.258h3.988v1.537Zm6.8-7.08v7.081h1.77v-2.516h.745l2.123,2.516h2.163l-2.329-2.609a2.156,2.156,0,0,0,1.942-2.175,2.291,2.291,0,0,0-2.475-2.3Zm1.77,1.584h2.023a.813.813,0,0,1,.839.745.8.8,0,0,1-.812.745h-2.05Zm7.174,5.5h-1.808v-7.081h1.808Zm4.286,0h-.39c-1.888,0-3.034-1.487-3.034-3.511a3.244,3.244,0,0,1,3.517-3.57h1.957v1.677H-186.4a1.7,1.7,0,0,0-1.652,1.91,1.734,1.734,0,0,0,1.91,1.947h.466Zm3.852-7.08-3.046,7.081h1.983l.562-1.418h3.267l.559,1.418h2.027l-3.043-7.081Zm1.127,1.648,1,2.478h-1.994Zm4.431,5.432v-7.081h2.251l2.874,4.449v-4.449h1.77v7.081h-2.178l-2.947-4.565v4.565Zm-35.219,12.392v-7.081h5.777v1.584h-3.988v1.211h3.895v1.491h-3.895v1.258h3.988v1.537Zm28.306,0v-7.081h5.777v1.584h-3.988v1.211h3.876v1.491h-3.876v1.258h3.988v1.537Zm-22.3,0,2.813-3.5-2.88-3.584h2.23l1.715,2.216,1.721-2.216h2.143l-2.842,3.54,2.818,3.541h-2.23l-1.665-2.181-1.625,2.181Zm7.928-7.08v7.081h1.817V273.63h1.863c1.577,0,2.772-.836,2.772-2.463a2.33,2.33,0,0,0-2.542-2.382Zm1.817,1.6h1.962a.8.8,0,0,1,.873.815.817.817,0,0,1-.879.815h-1.957Zm5.4-1.6v7.081h1.77v-2.516h.745l2.123,2.516h2.163l-2.329-2.609a2.157,2.157,0,0,0,1.942-2.175,2.29,2.29,0,0,0-2.475-2.3Zm1.77,1.584h2.024a.813.813,0,0,1,.839.745.8.8,0,0,1-.812.745h-2.05Zm11.982,5.5v-1.537h3.543c.524,0,.751-.283.751-.594s-.226-.6-.751-.6h-1.6a1.98,1.98,0,0,1-2.167-2.121c0-1.135.71-2.23,2.778-2.23h3.447l-.745,1.593h-2.982c-.57,0-.745.3-.745.585a.617.617,0,0,0,.652.617h1.677a1.942,1.942,0,0,1,2.225,2.032,2.123,2.123,0,0,1-2.309,2.254Zm6.5,0v-1.537h3.543c.524,0,.751-.283.751-.594s-.226-.6-.751-.6h-1.6a1.979,1.979,0,0,1-2.167-2.121c0-1.135.71-2.23,2.778-2.23h3.447l-.745,1.593h-2.981c-.57,0-.745.3-.745.585a.617.617,0,0,0,.652.617h1.677a1.942,1.942,0,0,1,2.225,2.032,2.123,2.123,0,0,1-2.309,2.254Z" transform="translate(225.12 -256.392)"/></g><g transform="translate(1295.819 4945.453)"><path class="d" d="M3.316,7.693c0-.511.419-.708,1.114-.708a7.31,7.31,0,0,1,3.25.839V4.744a8.643,8.643,0,0,0-3.25-.6C1.769,4.141,0,5.531,0,7.85c0,3.617,4.98,3.041,4.98,4.6,0,.6-.524.8-1.258.8A8.158,8.158,0,0,1,.144,12.2v3.119a9.085,9.085,0,0,0,3.578.747c2.726,0,4.6-1.35,4.6-3.7C8.309,8.466,3.316,9.161,3.316,7.693ZM12.175,1.52l-3.2.682L8.964,12.7a3.293,3.293,0,0,0,3.394,3.368,5.062,5.062,0,0,0,2.294-.432v-2.66c-.419.17-2.49.773-2.49-1.166V7.156h2.49V4.364h-2.49Zm6.553,3.814-.21-.97H15.688V15.832h3.276V8.06a2.311,2.311,0,0,1,2.49-.682V4.364A2.224,2.224,0,0,0,18.728,5.334Zm3.525-.97h3.29V15.832h-3.29Zm0-1,3.29-.708V0l-3.29.695Zm10.131.773a3.7,3.7,0,0,0-2.569,1.022l-.17-.813H26.762V19.632l3.276-.695.013-3.709a3.691,3.691,0,0,0,2.32.826c2.346,0,4.482-1.887,4.482-6.042C36.84,6.212,34.678,4.141,32.384,4.141Zm-.786,9.03a1.959,1.959,0,0,1-1.546-.616l-.013-4.862a1.951,1.951,0,0,1,1.56-.642c1.193,0,2.018,1.337,2.018,3.054C33.616,11.861,32.8,13.171,31.6,13.171Zm15.583-3.027c0-3.355-1.625-6-4.731-6s-5.006,2.647-5.006,5.976c0,3.945,2.228,5.937,5.426,5.937A7.307,7.307,0,0,0,46.5,15.2V12.582a6.959,6.959,0,0,1-3.211.721c-1.271,0-2.4-.446-2.543-1.992h6.409C47.154,11.14,47.181,10.458,47.181,10.144ZM40.706,8.9c0-1.481.9-2.1,1.73-2.1.8,0,1.651.616,1.651,2.1Z"/></g><g transform="translate(1143.142 4940)"><g transform="translate(0 0)"><rect class="e" width="132.836" height="30.496"/><path class="d" d="M341.637,293.875v-4.167a2.472,2.472,0,0,0-2.611-2.639,2.572,2.572,0,0,0-2.334,1.181,2.439,2.439,0,0,0-2.195-1.181,2.2,2.2,0,0,0-1.945.986v-.82h-1.445v6.64h1.458v-3.681a1.553,1.553,0,0,1,1.625-1.764c.958,0,1.445.625,1.445,1.75v3.695H337.1v-3.681a1.566,1.566,0,0,1,1.625-1.764c.986,0,1.458.625,1.458,1.75v3.695Zm21.585-6.64h-2.361v-2.014H359.4v2.014h-1.347v1.32H359.4v3.028c0,1.542.6,2.459,2.306,2.459a3.394,3.394,0,0,0,1.806-.514l-.417-1.236a2.667,2.667,0,0,1-1.278.375c-.722,0-.958-.445-.958-1.111v-3h2.361Zm12.321-.167a1.958,1.958,0,0,0-1.75.972v-.806h-1.431v6.64h1.444v-3.723c0-1.1.472-1.708,1.417-1.708a2.353,2.353,0,0,1,.9.167l.445-1.361A3.087,3.087,0,0,0,375.543,287.069Zm-18.627.695a4.965,4.965,0,0,0-2.709-.695c-1.681,0-2.764.806-2.764,2.125,0,1.084.806,1.75,2.292,1.959l.681.1c.792.111,1.167.319,1.167.694,0,.514-.528.806-1.514.806a3.538,3.538,0,0,1-2.209-.695l-.681,1.125a4.79,4.79,0,0,0,2.875.861c1.917,0,3.028-.9,3.028-2.167,0-1.167-.875-1.778-2.32-1.986l-.681-.1c-.625-.083-1.125-.208-1.125-.653,0-.486.472-.778,1.264-.778a4.279,4.279,0,0,1,2.07.57Zm38.7-.695a1.958,1.958,0,0,0-1.75.972v-.806h-1.431v6.64h1.445v-3.723c0-1.1.472-1.708,1.417-1.708a2.354,2.354,0,0,1,.9.167l.444-1.361A3.086,3.086,0,0,0,395.615,287.069ZM377,290.555a3.355,3.355,0,0,0,3.542,3.487,3.478,3.478,0,0,0,2.389-.792l-.694-1.167a2.918,2.918,0,0,1-1.736.6,2.129,2.129,0,0,1,0-4.25,2.918,2.918,0,0,1,1.736.6l.694-1.167a3.478,3.478,0,0,0-2.389-.792A3.354,3.354,0,0,0,377,290.555Zm13.529,0v-3.32h-1.444v.806a2.519,2.519,0,0,0-2.1-.972,3.491,3.491,0,0,0,0,6.973,2.519,2.519,0,0,0,2.1-.972v.806h1.444Zm-5.376,0a2.01,2.01,0,1,1,2.014,2.125A1.992,1.992,0,0,1,385.155,290.555Zm-17.432-3.486a3.489,3.489,0,0,0,.1,6.973,4.036,4.036,0,0,0,2.722-.931l-.708-1.07a3.163,3.163,0,0,1-1.931.694,1.844,1.844,0,0,1-1.986-1.625h4.931c.014-.18.028-.361.028-.556-.014-2.07-1.292-3.486-3.153-3.486Zm-.028,1.292a1.649,1.649,0,0,1,1.681,1.611h-3.445A1.709,1.709,0,0,1,367.7,288.361Zm36.24,2.195v-5.987H402.49v3.472a2.519,2.519,0,0,0-2.1-.972,3.491,3.491,0,0,0,0,6.973,2.519,2.519,0,0,0,2.1-.972v.806h1.445Zm1.688,2.707a.423.423,0,0,1,.167.033.434.434,0,0,1,.136.09.425.425,0,0,1,.092.134.414.414,0,0,1,0,.327.426.426,0,0,1-.092.134.443.443,0,0,1-.136.091.416.416,0,0,1-.167.034.429.429,0,0,1-.4-.258.415.415,0,0,1,0-.327.422.422,0,0,1,.228-.225.437.437,0,0,1,.17-.033Zm0,.75a.315.315,0,0,0,.127-.026.334.334,0,0,0,.1-.07.33.33,0,0,0,0-.465.327.327,0,0,0-.1-.07.317.317,0,0,0-.127-.025.328.328,0,1,0,0,.656Zm.025-.526a.178.178,0,0,1,.116.034.112.112,0,0,1,.041.091.106.106,0,0,1-.033.08.156.156,0,0,1-.092.039l.128.148h-.1l-.119-.147h-.038v.147h-.084v-.391Zm-.1.073v.1h.1a.1.1,0,0,0,.053-.013.044.044,0,0,0,.02-.04.043.043,0,0,0-.02-.039.1.1,0,0,0-.053-.013Zm-6.991-3a2.01,2.01,0,1,1,2.014,2.125A1.992,1.992,0,0,1,398.56,290.555Zm-48.782,0v-3.32h-1.445v.806a2.519,2.519,0,0,0-2.1-.972,3.491,3.491,0,0,0,0,6.973,2.519,2.519,0,0,0,2.1-.972v.806h1.445Zm-5.376,0a2.01,2.01,0,1,1,2.014,2.125A1.992,1.992,0,0,1,344.4,290.555Z" transform="translate(-281.628 -275.264)"/><g transform="translate(10.528 5.264)"><rect class="f" width="8.736" height="15.698" transform="translate(11.785 2.135)"/><path class="g" d="M202.991,279.983a9.966,9.966,0,0,1,3.813-7.849,9.984,9.984,0,1,0,0,15.7,9.966,9.966,0,0,1-3.813-7.849Z" transform="translate(-190.651 -269.999)"/><path class="h" d="M265.05,279.983a9.983,9.983,0,0,1-16.153,7.849,9.985,9.985,0,0,0,0-15.7,9.983,9.983,0,0,1,16.153,7.849Z" transform="translate(-232.745 -270)"/><path class="h" d="M303.186,327.3v-.321h.13v-.065h-.33v.065h.13v.321Zm.641,0v-.388h-.1l-.116.267-.116-.267h-.1v.388h.071v-.292l.109.252h.074l.109-.253v.293Z" transform="translate(-271.833 -311.128)"/></g></g></g></g></svg>