<svg xmlns="http://www.w3.org/2000/svg" width="304.417" height="22.328" viewBox="0 0 304.417 22.328"><defs><style>.a{fill:#fff;}</style></defs><g transform="translate(-78.264 -76.456)"><path class="a" d="M97.628,83.582c-2-.033-3.753-.059-5.991-.059-.033.633-.033,1.422-.033,1.873v9.35c0,1.149.033,3.51.15,4.359H84.288c.15-1.455.209-5.324.209-7.288V87.947c0-1.057-.033-2.9-.092-4.417-2.238,0-4.177.033-6.141.059.091-1.788.124-3.993.124-5.931,3,.091,6.05.15,9.685.15s6.749-.059,9.8-.15C97.719,79.53,97.628,81.22,97.628,83.582Z" transform="translate(0 -0.862)"/><path class="a" d="M155.891,99.187c.15-1.455.209-5.324.209-7.288V85.211c0-1.938-.059-5.84-.209-7.288,1.208,0,6.442-.033,7.473-.15-.124.874-.15,3.295-.15,4.476V94.835c0,1.149.033,3.51.15,4.359h-7.473Z" transform="translate(-55.705 -0.945)"/><path class="a" d="M209.557,97.2a13.258,13.258,0,0,1-6.69,1.605c-6.99,0-11.526-4.659-11.526-10.616,0-6.805,4.843-11.705,12.1-11.705a12.59,12.59,0,0,1,6.507,1.631l-.94,5.689a7.537,7.537,0,0,0-4.96-1.814,5.6,5.6,0,1,0-.032,11.2,8.841,8.841,0,0,0,5.717-2.147Z" transform="translate(-81.145 -0.017)"/><path class="a" d="M274.649,90.685v4.143c0,1.149.032,3.51.15,4.359h-7.447c.15-1.455.209-5.324.209-7.288V85.211c0-1.938-.059-5.84-.209-7.288,1.208,0,6.416-.033,7.447-.15-.124.874-.15,3.295-.15,4.476v4.117l2.33-3.327c.757-1.057,2.48-3.6,3.57-5.174h7.9L280.49,88l5.384,6.955L289.052,99l-8.138.515Z" transform="translate(-135.689 -0.945)"/><path class="a" d="M364.962,99.205c-2.056-.124-4.627-.15-7.048-.15-2.813,0-5.841.033-8.289.15.15-1.455.209-5.448.209-7.412V85.105c0-1.938-.059-6.022-.209-7.471,2.363.091,4.869.15,7.806.15,2.6,0,4.993-.059,7.14-.15-.117,1.723-.241,3.386-.241,5.507-1.449-.033-2.937-.059-4.66-.059-.907,0-1.938,0-2.813.033a9.047,9.047,0,0,0-.059,1.213v1.605h6.357c-.059,1.422-.091,2.936-.091,4.75H356.8V92.5a9.231,9.231,0,0,0,.059,1.24c.875,0,1.906.032,2.813.032,2.03,0,3.785-.032,5.508-.091C365.021,95.395,364.962,97.085,364.962,99.205Z" transform="translate(-194.728 -0.846)"/><path class="a" d="M429.244,83.582c-2-.033-3.753-.059-5.991-.059-.033.633-.033,1.422-.033,1.873v9.35c0,1.149.033,3.51.15,4.359H415.9c.15-1.455.209-5.324.209-7.288V87.947c0-1.057-.033-2.9-.091-4.417-2.238,0-4.177.033-6.141.059.091-1.788.124-3.993.124-5.931,3,.091,6.05.15,9.685.15s6.748-.059,9.8-.15C429.336,79.53,429.244,81.22,429.244,83.582Z" transform="translate(-237.963 -0.862)"/><path class="a" d="M503.06,80.346c-2.33-.033-4.36-.059-7.081-.059-.033.666-.033,1.455-.033,1.964V94.746c0,1.149.033,3.51.092,4.359h-3.27c.15-1.455.209-5.324.209-7.288V85.252c0-1.272,0-3.269-.059-4.959-2.721,0-4.869.033-7.172.059a24.432,24.432,0,0,0,.117-2.695c2.721.091,5.326.15,8.6.15,3.3,0,6.05-.059,8.837-.15A20.448,20.448,0,0,0,503.06,80.346Z" transform="translate(-292.408 -0.862)"/><path class="a" d="M547.912,88.185c0-6.531,4.451-11.705,10.925-11.705A10.289,10.289,0,0,1,569.188,87.1c0,6.531-4.451,11.705-10.925,11.705A10.289,10.289,0,0,1,547.912,88.185Zm18.222-.548c0-5.357-3.237-8.652-7.532-8.652-4.542,0-7.623,3.993-7.623,8.652,0,5.357,3.237,8.652,7.532,8.652C563.047,96.288,566.134,92.3,566.134,87.636Z" transform="translate(-337.019 -0.017)"/><path class="a" d="M644.674,81.827c-2.18-.033-4.085-.059-6.6-.059-.033.666-.033,1.455-.033,1.938v11.04c0,1.149.033,3.51.124,4.359H632.96c.15-1.455.209-5.324.209-7.288V86.492c0-1.181,0-3.119-.059-4.717-2.513,0-4.568.033-6.716.059.091-1.214.124-2.786.124-4.176,2.872.091,5.691.15,9.111.15,3.446,0,6.383-.059,9.287-.15A35,35,0,0,0,644.674,81.827Z" transform="translate(-393.337 -0.862)"/><path class="a" d="M715.135,99.5c.15-1.455.209-5.05.209-7.021V90.435h-8.9v4.718c0,1.148.033,3.51.091,4.358h-5.176c.15-1.455.209-5.324.209-7.288V85.535c0-1.938-.059-5.84-.209-7.288,1.181,0,4.2-.033,5.176-.15-.059.874-.091,3.295-.091,4.476v4.143h8.9V85.535c0-1.938-.059-5.84-.209-7.288,1.181,0,4.2-.033,5.2-.15-.091.874-.124,3.295-.124,4.476V95.159c0,1.148.032,3.51.124,4.358h-5.2Z" transform="translate(-447.135 -1.177)"/><path class="a" d="M794.232,99c-1.938-.124-4.327-.15-6.6-.15-2.454,0-5.084.033-7.14.15.15-1.455.209-5.448.209-7.412V84.9c0-1.938-.059-6.022-.209-7.471,2.03.091,4.294.15,6.807.15,2.363,0,4.568-.059,6.533-.15a31.975,31.975,0,0,0-.242,3.96c-1.631-.033-3.328-.059-5.267-.059-.907,0-1.906,0-2.78.033a14.367,14.367,0,0,0-.059,1.54v3.2l6.931-.032c-.059,1.031-.091,2.271-.091,3.6l-6.84-.059v3.869a14.6,14.6,0,0,0,.059,1.572c.875,0,1.873.032,2.78.032,2.239,0,4.209-.032,6.115-.091A33.273,33.273,0,0,0,794.232,99Z" transform="translate(-503.919 -0.696)"/><path class="a" d="M840.76,91.683l1.123-8.286c.333-2.362.666-4.809.816-6.446l.45-.124c.724,1.873,1.24,2.995,1.964,4.691l6.233,14.824,6.2-14.7c.666-1.54,1.514-3.536,2-4.809h.424l.79,5.931,1.149,8.593c.274,2.029.848,5.69,1.09,7.229l-1.482.15-.574-4.718-1.782-13.128c-1.573,3.66-7.473,17.6-7.6,17.969l-.457.091c-.183-.365-6.141-14.609-7.623-18.119l-1.755,13.46c-.183,1.39-.424,3.177-.542,4.326H839.7C840.062,96.557,840.427,93.953,840.76,91.683Z" transform="translate(-546.407 -0.265)"/><path class="a" d="M927.2,88.185c0-6.531,4.451-11.705,10.86-11.705,6.083,0,10.227,4.9,10.227,10.616,0,6.531-4.451,11.705-10.834,11.705C931.375,98.8,927.2,93.868,927.2,88.185Zm19.664-.848c0-5.416-3.629-9.65-8.9-9.65-5.534,0-9.352,4.626-9.352,10.257,0,5.383,3.629,9.65,8.9,9.65C943.083,97.587,946.862,92.961,946.862,87.337Z" transform="translate(-609.193 -0.017)"/><path class="a" d="M1010.7,88.185c0-6.531,4.451-11.705,10.858-11.705,6.083,0,10.229,4.9,10.229,10.616,0,6.531-4.453,11.705-10.836,11.705C1014.868,98.8,1010.7,93.868,1010.7,88.185Zm19.664-.848c0-5.416-3.629-9.65-8.9-9.65-5.535,0-9.353,4.626-9.353,10.257,0,5.383,3.629,9.65,8.9,9.65C1026.585,97.587,1030.364,92.961,1030.364,87.337Z" transform="translate(-669.114 -0.017)"/><path class="a" d="M1095.634,90.948l.031-6.864c0-1.938,0-6.048-.116-7.5l.483-.124,15.185,19.359V84.26c0-1.938-.031-5.84-.116-7.288a8.493,8.493,0,0,0,1.539-.124c-.059.874-.09,3.269-.09,4.45l-.059,12.645c-.034,1.149-.034,3.843.034,4.691l-.452.15-15.128-19.267V93.884c0,1.149.034,3.51.059,4.359h-1.514C1095.575,96.787,1095.606,92.918,1095.634,90.948Z" transform="translate(-729.959)"/></g></svg>